<svg width="160" height="40" viewBox="0 0 160 40" fill="none" xmlns="http://www.w3.org/2000/svg">
<path d="M21.2301 17.2475C21.2301 15.6493 20.944 14.4579 20.3719 13.6733C19.7997 12.8597 19.077 12.3075 18.2037 12.017C17.3605 11.7264 16.5324 11.5957 15.7193 11.6247L12.7832 11.6683C12.1508 11.6683 11.6088 11.7555 11.1571 11.9298C10.7054 12.0751 10.3591 12.4238 10.1182 12.9759C9.87724 13.4989 9.75682 14.3271 9.75682 15.4604V21.5626L12.467 21.4754C15.4182 21.3882 17.7972 21.5771 19.604 22.0421C21.4409 22.507 22.8412 23.1753 23.8048 24.0471C24.7986 24.8898 25.461 25.8632 25.7923 26.9674C26.1537 28.0717 26.3344 29.2339 26.3344 30.4544C26.3344 32.3722 25.8526 33.9995 24.8889 35.3362C23.9554 36.6438 22.6605 37.6317 21.0043 38.3001C19.348 38.9685 17.4659 39.3026 15.358 39.3026H0V36.4259C0.692616 36.3968 1.26477 36.3096 1.71648 36.1643C2.19829 36.019 2.55966 35.6849 2.80057 35.1618C3.07159 34.6388 3.2071 33.7961 3.2071 32.6338V15.9398C3.2071 15.1553 3.22216 14.3997 3.25227 13.6733C3.3125 12.9469 3.35767 12.3947 3.38778 12.017C2.90597 12.046 2.30369 12.0751 1.58097 12.1042C0.858238 12.1042 0.331253 12.1187 0 12.1477V8.79152H23.9403L24.1662 17.2475H21.2301ZM9.75682 32.3722C9.75682 33.1568 9.74173 33.8978 9.71165 34.5952C9.68156 35.2926 9.63639 35.8302 9.57613 36.2079C10.1182 36.2079 10.6301 36.2079 11.1119 36.2079C11.5937 36.2079 12.0756 36.2079 12.5574 36.2079C13.0392 36.1789 13.506 36.1643 13.9577 36.1643C15.7946 36.0772 17.1347 35.496 17.9778 34.4208C18.821 33.3457 19.2426 31.9654 19.2426 30.28C19.2426 28.7691 18.9565 27.6067 18.3844 26.7931C17.8122 25.9795 17.0744 25.4128 16.171 25.0932C15.2977 24.7735 14.3793 24.6137 13.4156 24.6137C12.6628 24.6137 12.0153 24.6137 11.4733 24.6137C10.9312 24.5847 10.3591 24.5991 9.75682 24.6573V32.3722ZM42.0145 39.3026C41.9543 38.8958 41.9091 38.5616 41.879 38.3001C41.879 38.0095 41.864 37.6753 41.8338 37.2976C40.81 38.2855 39.7259 38.9829 38.5815 39.3898C37.4373 39.7966 36.2778 40 35.1034 40C33.1762 40 31.6704 39.4479 30.5864 38.3437C29.5023 37.2395 28.9602 35.8592 28.9602 34.2029C28.9602 32.8081 29.3216 31.6167 30.0443 30.6287C30.7972 29.6408 31.7759 28.8417 32.9804 28.2314C34.2151 27.5922 35.5702 27.1127 37.0457 26.7931C38.5514 26.4444 40.0571 26.241 41.5628 26.1828V23.9163C41.5628 23.1608 41.4574 22.4779 41.2466 21.8677C41.0659 21.2575 40.7347 20.778 40.2528 20.4293C39.8011 20.0806 39.1537 19.9208 38.3105 19.9499C37.7384 19.9789 37.1812 20.0952 36.6392 20.2986C36.0971 20.5019 35.6304 20.7926 35.2389 21.1703C35.4798 21.4318 35.6304 21.7224 35.6906 22.0421C35.7509 22.3326 35.781 22.5941 35.781 22.8266C35.781 23.4078 35.5401 24.018 35.0582 24.6573C34.5764 25.2675 33.8085 25.5581 32.7545 25.529C31.8511 25.5 31.1586 25.1949 30.6767 24.6137C30.1949 24.0325 29.954 23.3497 29.954 22.5651C29.954 21.4028 30.3756 20.4003 31.2187 19.5576C32.0921 18.6858 33.2514 18.0175 34.6969 17.5526C36.1423 17.0585 37.7384 16.8116 39.4849 16.8116C42.135 16.8116 44.1827 17.4799 45.6281 18.8166C47.1037 20.1242 47.8415 22.231 47.8415 25.1367C47.8415 26.1247 47.8415 26.9674 47.8415 27.6648C47.8415 28.3622 47.8265 29.0596 47.7963 29.757C47.7963 30.4544 47.7963 31.2971 47.7963 32.2851C47.7963 32.6919 47.7813 33.273 47.7511 34.0286C47.721 34.755 47.6759 35.4524 47.6156 36.1207C48.1276 36.0626 48.6696 36.0336 49.2417 36.0336C49.814 36.0045 50.2506 35.99 50.5517 35.99V39.3026H42.0145ZM41.5176 29.2775C40.6744 29.3647 39.8765 29.51 39.1236 29.7134C38.3708 29.9168 37.7083 30.1929 37.1361 30.5416C36.594 30.8903 36.1574 31.3116 35.8261 31.8056C35.525 32.2996 35.3744 32.8517 35.3744 33.4619C35.4046 34.2755 35.6756 34.8567 36.1875 35.2054C36.6994 35.5541 37.2867 35.7285 37.9491 35.7285C38.6418 35.7285 39.2892 35.5831 39.8915 35.2926C40.4938 35.002 41.0358 34.6242 41.5176 34.1593C41.5176 33.8688 41.5176 33.5927 41.5176 33.3312C41.5176 33.0406 41.5176 32.75 41.5176 32.4594C41.5176 31.9364 41.5176 31.4133 41.5176 30.8903C41.5176 30.3382 41.5176 29.8006 41.5176 29.2775ZM64.8894 20.3421C64.0763 20.3421 63.4741 20.5019 63.0826 20.8216C62.7212 21.1413 62.4804 21.5916 62.3599 22.1728C62.2695 22.754 62.2244 23.4368 62.2244 24.2214V32.2851C62.2244 32.6919 62.2094 33.273 62.1792 34.0286C62.1491 34.755 62.1039 35.4524 62.0437 36.1207C62.5256 36.0626 63.0525 36.0336 63.6246 36.0336C64.2269 36.0045 64.6786 35.99 64.9798 35.99V39.3026H53.1451V36.4694C53.9883 36.4694 54.5906 36.3096 54.9519 35.99C55.3133 35.6703 55.5391 35.22 55.6295 34.6388C55.75 34.0286 55.8102 33.3457 55.8102 32.5902V24.5265C55.8102 24.1197 55.8252 23.5386 55.8553 22.783C55.8855 22.0275 55.9307 21.3301 55.9908 20.6908C55.5091 20.7199 54.9821 20.749 54.4099 20.778C53.8377 20.807 53.386 20.8216 53.0548 20.8216V17.509H64.8894V20.3421ZM71.5746 21.1703L73.7428 23.3497L60.7789 35.3798L58.5656 33.1568L71.5746 21.1703ZM79.5246 20.3421C78.7116 20.3421 78.1094 20.5019 77.7178 20.8216C77.3565 21.1413 77.1156 21.5916 76.9951 22.1728C76.9048 22.754 76.8596 23.4368 76.8596 24.2214V32.2851C76.8596 32.6919 76.8446 33.273 76.8144 34.0286C76.7843 34.755 76.7392 35.4524 76.6789 36.1207C77.1608 36.0626 77.6877 36.0336 78.2599 36.0336C78.8622 36.0045 79.3139 35.99 79.615 35.99V39.3026H67.7803V36.4694C68.6236 36.4694 69.2258 36.3096 69.5871 35.99C69.9485 35.6703 70.1744 35.22 70.2647 34.6388C70.3852 34.0286 70.4454 33.3457 70.4454 32.5902V24.5265C70.4454 24.1197 70.4605 23.5386 70.4905 22.783C70.5207 22.0275 70.5659 21.3301 70.6261 20.6908C70.1443 20.7199 69.6173 20.749 69.0451 20.778C68.473 20.807 68.0213 20.8216 67.69 20.8216V17.509H79.5246V20.3421ZM82.1537 39.3026V36.4694C82.9969 36.4694 83.5992 36.3096 83.9606 35.99C84.352 35.6703 84.5929 35.22 84.6833 34.6388C84.8037 34.0286 84.864 33.3457 84.864 32.5902V24.5265C84.864 24.1197 84.8791 23.5386 84.9091 22.783C84.9392 22.0275 84.9844 21.3301 85.0446 20.6908C84.5629 20.7199 84.0358 20.749 83.4637 20.778C82.8915 20.807 82.4398 20.8216 82.1086 20.8216V17.509H93.9437V20.3421C93.0999 20.3421 92.4829 20.5019 92.0917 20.8216C91.7303 21.1413 91.5045 21.5916 91.4141 22.1728C91.3238 22.754 91.2786 23.4368 91.2786 24.2214V26.27H93.4468L96.6991 22.6523C97.0902 22.2454 97.4064 21.8967 97.6477 21.6062C97.9187 21.3156 98.1897 21.0541 98.4607 20.8216H96.0667V17.509H106.23V20.2986C105.176 20.4148 104.243 20.6618 103.429 21.0395C102.616 21.3882 101.908 21.8096 101.306 22.3036C100.734 22.7976 100.237 23.2771 99.8158 23.742L96.9249 26.8367C97.3766 27.0691 97.813 27.3887 98.2349 27.7956C98.6866 28.1733 99.2286 28.769 99.861 29.5826L102.887 33.4183C103.068 33.6217 103.294 33.8978 103.565 34.2465C103.866 34.5952 104.197 34.9439 104.559 35.2926C104.92 35.6123 105.311 35.8882 105.733 36.1207C106.154 36.3532 106.591 36.4694 107.043 36.4694V39.3026H101.849C100.885 39.3026 100.042 38.9829 99.319 38.3437C98.5962 37.6753 97.7678 36.731 96.8346 35.5105C96.2925 34.8131 95.7198 34.0721 95.1181 33.2876C94.5453 32.474 94.0033 31.7184 93.492 31.021C93.0096 30.2946 92.6184 29.728 92.3175 29.3211L91.2786 29.3647V32.2851C91.2786 32.6919 91.2633 33.273 91.2335 34.0286C91.2027 34.755 91.1576 35.4524 91.0979 36.1207C91.5795 36.0626 92.1061 36.0336 92.6789 36.0336C93.2508 36.0045 93.7025 35.99 94.034 35.99V39.3026H82.1537ZM122.078 39.3026C122.017 38.8958 121.972 38.5616 121.942 38.3001C121.942 38.0095 121.927 37.6753 121.897 37.2976C120.872 38.2855 119.788 38.9829 118.645 39.3898C117.5 39.7966 116.341 40 115.167 40C113.239 40 111.734 39.4479 110.65 38.3437C109.565 37.2395 109.023 35.8592 109.023 34.2029C109.023 32.8081 109.385 31.6167 110.107 30.6287C110.86 29.6408 111.838 28.8417 113.044 28.2314C114.278 27.5922 115.633 27.1127 117.109 26.7931C118.614 26.4444 120.12 26.241 121.626 26.1828V23.9163C121.626 23.1608 121.52 22.4779 121.31 21.8677C121.129 21.2575 120.798 20.778 120.316 20.4293C119.864 20.0806 119.217 19.9208 118.374 19.9499C117.801 19.9789 117.244 20.0952 116.702 20.2986C116.16 20.5019 115.693 20.7926 115.302 21.1703C115.542 21.4318 115.693 21.7224 115.754 22.0421C115.813 22.3326 115.844 22.5941 115.844 22.8266C115.844 23.4078 115.603 24.018 115.121 24.6573C114.639 25.2675 113.871 25.5581 112.818 25.529C111.914 25.5 111.221 25.1949 110.74 24.6137C110.257 24.0325 110.017 23.3497 110.017 22.5651C110.017 21.4028 110.438 20.4003 111.282 19.5576C112.155 18.6858 113.315 18.0175 114.76 17.5526C116.205 17.0585 117.801 16.8116 119.548 16.8116C122.198 16.8116 124.246 17.4799 125.691 18.8166C127.167 20.1242 127.905 22.231 127.905 25.1367C127.905 26.1247 127.905 26.9674 127.905 27.6648C127.905 28.3622 127.889 29.0596 127.859 29.757C127.859 30.4544 127.859 31.2971 127.859 32.2851C127.859 32.6919 127.844 33.273 127.814 34.0286C127.784 34.755 127.738 35.4524 127.679 36.1207C128.19 36.0626 128.732 36.0336 129.305 36.0336C129.877 36.0045 130.313 35.99 130.615 35.99V39.3026H122.078ZM121.581 29.2775C120.737 29.3647 119.939 29.51 119.187 29.7134C118.433 29.9168 117.771 30.1929 117.199 30.5416C116.657 30.8903 116.22 31.3116 115.889 31.8056C115.588 32.2996 115.438 32.8517 115.438 33.4619C115.467 34.2755 115.738 34.8567 116.251 35.2054C116.762 35.5541 117.349 35.7285 118.012 35.7285C118.704 35.7285 119.352 35.5831 119.955 35.2926C120.556 35.002 121.098 34.6242 121.581 34.1593C121.581 33.8688 121.581 33.5927 121.581 33.3312C121.581 33.0406 121.581 32.75 121.581 32.4594C121.581 31.9364 121.581 31.4133 121.581 30.8903C121.581 30.3382 121.581 29.8006 121.581 29.2775ZM136.37 39.9128C134.985 39.9128 133.84 39.5496 132.937 38.8232C132.033 38.0967 131.581 37.1523 131.581 35.99C131.581 35.0311 131.868 34.3046 132.44 33.8106C133.012 33.2876 133.765 33.026 134.698 33.026C135.662 33.026 136.34 33.273 136.731 33.767C137.153 34.261 137.363 34.7986 137.363 35.3798C137.363 35.7575 137.318 36.0481 137.228 36.2515C137.137 36.4258 137.033 36.5856 136.912 36.731C137.002 36.8181 137.153 36.8617 137.363 36.8617C138.176 36.8617 138.885 36.2079 139.486 34.9003C140.089 33.5927 140.586 31.7184 140.977 29.2775C141.369 26.8367 141.67 23.9017 141.88 20.4729L137.589 20.8216V17.509H159.768V20.3421C158.925 20.3421 158.308 20.5019 157.916 20.8216C157.555 21.1413 157.314 21.5916 157.193 22.1728C157.103 22.754 157.058 23.4368 157.058 24.2214V32.2851C157.058 32.6919 157.043 33.273 157.012 34.0286C156.983 34.755 156.937 35.4524 156.877 36.1207L159.813 35.99V39.3026H147.933V36.4694C148.777 36.4694 149.379 36.3096 149.74 35.99C150.132 35.6703 150.372 35.22 150.463 34.6388C150.584 34.0286 150.643 33.3457 150.643 32.5902V24.5265C150.643 24.1197 150.659 23.5822 150.689 22.9138C150.719 22.2164 150.764 21.5626 150.824 20.9524H147.436C146.714 20.9524 146.202 21.0686 145.901 21.3011C145.6 21.5336 145.419 22.013 145.358 22.7394C145.178 25.6452 144.847 28.1733 144.365 30.3236C143.913 32.474 143.311 34.261 142.558 35.6849C141.835 37.1087 140.947 38.1693 139.893 38.8667C138.869 39.5641 137.695 39.9128 136.37 39.9128Z" fill="#2F70D9"/>
<path d="M50.1974 0.195803V2.91149H45.0981V12.642H41.5956V0.195803H50.1974ZM64.1102 6.40188C64.1102 7.36106 63.9897 8.23507 63.7486 9.02392C63.5132 9.80709 63.1427 10.4825 62.6369 11.05C62.1311 11.6176 61.4812 12.0546 60.6872 12.361C59.8932 12.6619 58.9432 12.8123 57.8376 12.8123C56.7554 12.8123 55.8173 12.6619 55.0232 12.361C54.2351 12.0546 53.5852 11.6204 53.0734 11.0586C52.5617 10.4911 52.1824 9.81285 51.9354 9.02392C51.6883 8.23507 51.5648 7.35531 51.5648 6.38488C51.5648 5.09086 51.7854 3.9671 52.2265 3.01365C52.6735 2.0545 53.3617 1.31386 54.291 0.791719C55.2202 0.263903 56.4084 0 57.8552 0C59.3256 0 60.5195 0.263903 61.4371 0.791719C62.3605 1.31953 63.0369 2.06301 63.4662 3.02216C63.8955 3.9813 64.1102 5.10786 64.1102 6.40188ZM55.2349 6.40188C55.2349 7.15106 55.3232 7.79519 55.4996 8.33436C55.6761 8.87354 55.9555 9.28779 56.3377 9.5773C56.72 9.86672 57.22 10.0114 57.8376 10.0114C58.4786 10.0114 58.9874 9.86672 59.3638 9.5773C59.7461 9.28779 60.0196 8.87354 60.1843 8.33436C60.3548 7.79519 60.4401 7.15106 60.4401 6.40188C60.4401 5.27811 60.246 4.38998 59.8579 3.7373C59.4697 3.08463 58.8021 2.75826 57.8552 2.75826C57.2259 2.75826 56.7171 2.90582 56.329 3.20092C55.9466 3.49609 55.6672 3.91601 55.4908 4.46085C55.3202 5.00569 55.2349 5.6527 55.2349 6.40188ZM72.1827 2.77528C71.771 2.77528 71.4034 2.86041 71.0799 3.03068C70.7564 3.19525 70.48 3.43646 70.2506 3.7543C70.0212 4.07214 69.8448 4.46085 69.7213 4.92061C69.6036 5.37462 69.5448 5.89112 69.5448 6.46996C69.5448 7.25323 69.6477 7.91157 69.8536 8.44499C70.0594 8.9785 70.3712 9.38151 70.7887 9.65393C71.2123 9.92635 71.7416 10.0625 72.3767 10.0625C72.9532 10.0625 73.506 9.98589 74.0354 9.83263C74.5706 9.67947 75.1087 9.49501 75.6499 9.27934V12.1227C75.0794 12.3667 74.4942 12.5427 73.8942 12.6506C73.3002 12.7584 72.6679 12.8123 71.9974 12.8123C70.5976 12.8123 69.4507 12.5455 68.5567 12.012C67.6686 11.4729 67.0128 10.7265 66.5893 9.77309C66.1717 8.81958 65.9629 7.7129 65.9629 6.45296C65.9629 5.51087 66.0982 4.64819 66.3687 3.86493C66.6452 3.08175 67.0481 2.40354 67.5774 1.83033C68.1068 1.25143 68.7596 0.805911 69.536 0.493756C70.3182 0.175935 71.2123 0.017025 72.218 0.017025C72.8415 0.017025 73.4973 0.0879678 74.1854 0.229853C74.8794 0.366063 75.5558 0.587408 76.2145 0.893879L75.147 3.54142C74.6765 3.32584 74.2001 3.14417 73.7178 2.99662C73.2355 2.84906 72.7237 2.77528 72.1827 2.77528ZM83.8635 12.642H80.3787V2.94554H77.229V0.195803H87.0042V2.94554H83.8635V12.642ZM88.8484 0.195803H92.0944V5.89113C92.0944 6.14646 92.0917 6.41609 92.0862 6.69984C92.0799 6.97793 92.0709 7.25323 92.0591 7.52565C92.0474 7.79807 92.0329 8.05628 92.0158 8.30028C91.9977 8.54437 91.9769 8.76004 91.9534 8.94729H92.0239L97.335 0.195803H101.332V12.642H98.0758V7.25323C98.0758 7.02047 98.0795 6.75659 98.0849 6.46151C98.0966 6.16634 98.1084 5.86271 98.1201 5.55053C98.1382 5.23845 98.1553 4.93761 98.1734 4.64819C98.1969 4.35868 98.2204 4.10614 98.2439 3.89047H98.1644L92.8532 12.642H88.8484V0.195803ZM115.183 12.642H111.68V7.56819H107.631V12.642H104.129V0.195803H107.631V4.8099H111.68V0.195803H115.183V12.642ZM117.98 0.195803H121.227V5.89113C121.227 6.14646 121.223 6.41609 121.218 6.69984C121.211 6.97793 121.202 7.25323 121.19 7.52565C121.179 7.79807 121.164 8.05628 121.147 8.30028C121.129 8.54437 121.108 8.76004 121.085 8.94729H121.155L126.466 0.195803H130.463V12.642H127.208V7.25323C127.208 7.02047 127.211 6.75659 127.216 6.46151C127.228 6.16634 127.24 5.86271 127.251 5.55053C127.269 5.23845 127.287 4.93761 127.305 4.64819C127.328 4.35868 127.352 4.10614 127.375 3.89047H127.296L121.985 12.642H117.98V0.195803ZM146.555 9.88372V16.5155H143.159V12.642H133.26V0.195803H136.763V9.88372H140.345V0.195803H143.847V9.88372H146.555ZM156.189 12.642L155.554 10.3094H151.363L150.71 12.642H146.882L151.09 0.144718H155.74L160 12.642H156.189ZM154.831 7.55119L154.275 5.50799C154.215 5.28666 154.131 4.97169 154.019 4.56302C153.907 4.14877 153.795 3.72309 153.683 3.28609C153.578 2.84339 153.495 2.48016 153.437 2.19639C153.383 2.48016 153.308 2.83203 153.207 3.252C153.113 3.66634 153.013 4.07781 152.907 4.48639C152.807 4.89507 152.719 5.23557 152.643 5.50799L152.087 7.55119H154.831Z" fill="#686868"/>
</svg>
